<svg xmlns="http://www.w3.org/2000/svg" viewBox="0 0 24 24" fill="currentColor">
    <path d="M12 2C10.3 2 9 3.3 9 5C9 5.3 9 5.6 9.1 5.9C7.9 5.3 6.4 5.5 5.5 6.5C4.5 7.5 4.5 9.2 5.6 10.1C5.1 10 4.6 10 4 10.3C2.8 11 2.4 12.5 3 13.7C3.7 14.9 5.2 15.3 6.4 14.7C6.1 15.1 6 15.5 6 16H10V18H8V20H16V18H14V16H18C18 15.5 17.9 15.1 17.6 14.7C18.8 15.3 20.3 14.9 21 13.7C21.6 12.5 21.2 11 20 10.3C19.4 10 18.9 10 18.4 10.1C19.5 9.2 19.5 7.5 18.5 6.5C17.6 5.5 16.1 5.3 14.9 5.9C15 5.6 15 5.3 15 5C15 3.3 13.7 2 12 2Z"/>
</svg>
